<svg xmlns="http://www.w3.org/2000/svg" viewBox="713 463 180 278" width="100" height="198">
  <path id="path_a9992e12-6b70-4d3d-0289-966313c3ffee"
    d="M-0.44,135.85 Q0.07,134.33 0.73,133.39 T2.73,130.74 5.98,126.42 11.63,118.72 20.50,106.56 31.47,91.19 43.97,73.72 58.00,54.71 72.26,35.70 84.37,19.74 92.21,10.05 96.10,7.35 97.91,9.42 98.22,20.91 97.33,43.30 96.12,69.78 95.28,97.78 94.86,125.52 95.16,150.60 96.32,170.80 98.25,188.64 99.45,198.02 99.42,198.16 99.35,198.28 99.24,198.38 99.11,198.44 98.96,198.45 98.82,198.41 98.70,198.33 98.61,198.22 98.56,198.08 98.56,197.94 98.60,197.80 98.68,197.68 98.80,197.60 98.94,197.55 99.09,197.56 99.22,197.61 99.34,197.70 99.41,197.83 99.45,197.97 99.43,198.11 99.38,198.24 99.28,198.35 99.15,198.42 99.01,198.45 98.87,198.43 98.74,198.36 98.63,198.26 98.57,198.13 98.55,198.06 97.34,188.74 95.42,170.86 94.25,150.61 93.95,125.51 94.37,97.75 95.22,69.74 96.42,43.27 97.33,21.01 97.17,9.78 95.97,7.96 92.74,10.70 85.09,20.29 72.99,36.25 58.73,55.25 44.71,74.25 32.21,91.72 21.24,107.10 12.37,119.26 6.71,126.97 3.47,131.29 1.54,133.81 0.69,135.39 0.42,136.20 0.36,136.29 0.28,136.37 0.18,136.43 0.07,136.46 -0.04,136.46 -0.15,136.44 -0.25,136.39 -0.33,136.32 -0.40,136.23 -0.45,136.13 -0.46,136.02 -0.45,135.91 Z"
    fill="#000000" stroke="transparent" stroke-width="0" stroke-linejoin="round"
    stroke-linecap="round" pointer-events="all" transform="translate(753, 503)" />
</svg>
