<svg xmlns="http://www.w3.org/2000/svg" viewBox="691 311 314 354" width="234" height="274">
  <path id="path_4c80757d-9fcb-4bbc-3735-ef8e3aea9dac"
    d="M233.89,6.45 Q231.86,5.94 226.82,5.31 T211.19,3.87 185.99,2.39 156.59,1.66 127.66,2.32 102.28,5.17 85.03,10.35 76.63,17.36 74.05,27.28 73.76,40.79 71.83,57.92 67.07,79.08 61.68,101.66 58.27,121.11 59.09,135.14 65.75,143.95 77.84,149.80 93.19,155.50 108.93,163.16 124.61,175.34 138.45,191.02 147.33,207.94 149.93,224.52 142.29,241.43 125.25,256.67 105.11,264.70 84.69,264.84 64.42,257.77 45.28,245.64 27.98,231.02 9.70,213.82 -0.36,204.27 -0.43,204.14 -0.45,204.00 -0.43,203.86 -0.36,203.73 -0.25,203.63 -0.12,203.57 0.02,203.55 0.17,203.58 0.29,203.66 0.38,203.77 0.44,203.90 0.45,204.05 0.41,204.19 0.33,204.31 0.21,204.40 0.07,204.44 -0.07,204.44 -0.21,204.40 -0.33,204.31 -0.41,204.19 -0.45,204.05 -0.44,203.90 -0.38,203.77 -0.29,203.66 -0.17,203.58 -0.02,203.55 0.12,203.57 0.25,203.63 0.31,203.67 10.33,213.16 28.57,230.33 45.77,244.87 64.72,256.92 84.70,263.94 104.80,263.86 124.67,256.00 141.50,241.07 149.06,224.58 146.52,208.34 137.76,191.61 124.06,176.06 108.53,163.98 92.87,156.35 77.43,150.60 65.11,144.52 58.25,135.30 57.37,120.98 60.79,101.45 66.18,78.88 70.93,57.83 72.85,40.76 73.20,27.06 76.00,16.77 84.71,9.52 102.17,4.27 127.64,1.41 156.62,0.75 186.05,1.48 211.28,2.95 226.99,4.41 233.10,5.30 234.17,5.57 234.26,5.62 234.35,5.69 234.41,5.79 234.45,5.89 234.46,6.00 234.45,6.11 234.41,6.22 234.35,6.31 234.26,6.38 234.16,6.43 234.05,6.46 233.94,6.46 Z"
    fill="#000000" stroke="transparent" stroke-width="0" stroke-linejoin="round"
    stroke-linecap="round" pointer-events="all" transform="translate(731, 351)" />
</svg>
