<svg xmlns="http://www.w3.org/2000/svg" viewBox="672 410 220 305" width="140" height="225">
  <path id="path_0c8350ef-bdee-4d0b-0a02-ab0a204b7200"
    d="M70.67,99.33 Q69.68,98.33 68.66,96.81 T64.67,91.82 55.73,81.39 44.73,66.40 36.66,50.84 32.60,34.74 33.07,20.06 41.10,8.83 57.19,1.65 84.26,2.05 111.90,9.51 129.13,22.05 138.32,38.68 137.45,59.35 125.51,83.98 103.53,109.58 73.55,135.13 40.56,160.64 15.03,183.63 3.00,202.53 1.87,215.79 10.13,222.59 27.40,224.04 50.22,220.09 76.56,205.74 94.48,184.44 98.03,164.61 93.10,142.78 82.68,120.39 70.23,101.41 58.74,86.41 51.71,77.86 49.63,75.26 49.57,75.13 49.55,74.99 49.58,74.84 49.65,74.72 49.76,74.62 49.89,74.56 50.04,74.55 50.18,74.59 50.30,74.67 50.39,74.78 50.44,74.92 50.44,75.06 50.40,75.20 50.32,75.32 50.20,75.40 50.06,75.45 49.91,75.44 49.78,75.39 49.66,75.30 49.59,75.18 49.55,75.03 49.56,74.89 49.62,74.76 49.72,74.65 49.85,74.58 49.99,74.55 50.13,74.57 50.26,74.64 50.32,74.68 52.38,77.25 59.46,85.85 70.99,100.91 83.50,120.00 93.98,142.60 98.91,164.73 95.21,184.92 76.99,206.51 50.38,220.98 27.30,224.93 9.72,223.29 1.14,215.97 2.21,202.15 14.41,182.98 40.00,159.92 72.96,134.44 102.84,108.99 124.70,83.60 136.57,59.30 137.53,39.04 128.57,22.74 111.62,10.36 84.28,2.94 57.54,2.47 41.77,9.36 33.93,20.18 33.47,34.53 37.48,50.43 45.46,65.86 56.43,80.79 65.40,91.26 69.37,96.23 70.83,98.18 71.36,98.71 71.42,98.81 71.46,98.92 71.46,99.03 71.44,99.14 71.40,99.24 71.33,99.33 71.24,99.40 71.14,99.44 71.03,99.46 70.92,99.46 70.81,99.42 70.71,99.36 Z"
    fill="#000000" stroke="transparent" stroke-width="0" stroke-linejoin="round"
    stroke-linecap="round" pointer-events="all" transform="translate(712, 450)" />
</svg>
