<svg xmlns="http://www.w3.org/2000/svg" viewBox="765 376 323 406" width="243" height="326">
  <path id="path_d87a4516-33ed-4c07-2bbb-c33961099bc3"
    d="M97.22,48.41 Q91.65,51.45 85.98,55.48 T72.22,67.56 54.82,87.69 36.36,116.84 20.44,153.49 10.31,196.86 8.61,240.99 16.87,276.10 36.31,299.64 66.07,311.98 103.74,312.76 144.55,301.26 181.60,276.89 209.70,239.35 224.05,187.47 223.03,131.79 208.61,85.39 184.32,49.64 154.91,25.97 123.24,13.04 84.39,5.61 61.87,2.43 61.74,2.36 61.63,2.26 61.57,2.13 61.55,1.99 61.58,1.84 61.65,1.72 61.76,1.62 61.89,1.56 62.04,1.55 62.18,1.59 62.30,1.67 62.39,1.78 62.44,1.92 62.44,2.06 62.40,2.20 62.32,2.32 62.20,2.40 62.06,2.45 61.91,2.44 61.78,2.39 61.66,2.30 61.59,2.18 61.55,2.03 61.56,1.89 61.62,1.76 61.72,1.65 61.85,1.58 61.99,1.55 62.06,1.55 84.57,4.72 123.57,12.21 155.46,25.25 185.05,49.12 209.47,85.10 223.93,131.76 224.91,187.71 210.43,239.87 182.10,277.63 144.81,302.13 103.72,313.66 65.74,312.81 35.67,300.24 16.02,276.36 7.71,240.98 9.43,196.65 19.60,153.12 35.60,116.35 54.13,87.08 71.63,66.86 85.49,54.70 93.99,49.11 96.83,47.57 96.94,47.54 97.05,47.54 97.16,47.56 97.26,47.61 97.34,47.69 97.41,47.78 97.45,47.88 97.46,47.99 97.45,48.10 97.41,48.21 97.35,48.30 97.27,48.38 Z"
    fill="#000000" stroke="transparent" stroke-width="0" stroke-linejoin="round"
    stroke-linecap="round" pointer-events="all" transform="translate(805, 416)" />
</svg>
