<svg width="100%" height="100%" viewBox="0 0 74 95" fill="none" xmlns="http://www.w3.org/2000/svg">
<path d="M2.18182 95V76.8182L36.9091 48.0909C39.2121 46.1818 41.1818 44.3939 42.8182 42.7273C44.4849 41.0303 45.7576 39.2879 46.6364 37.5C47.5455 35.7121 48 33.7273 48 31.5455C48 29.1515 47.4848 27.1061 46.4545 25.4091C45.4545 23.7121 44.0606 22.4091 42.2727 21.5C40.4849 20.5606 38.4242 20.0909 36.0909 20.0909C33.7576 20.0909 31.697 20.5606 29.9091 21.5C28.1515 22.4394 26.7879 23.8182 25.8182 25.6364C24.8485 27.4545 24.3636 29.6667 24.3636 32.2727H0.363636C0.363636 25.7273 1.83333 20.0909 4.77273 15.3636C7.71212 10.6364 11.8636 7 17.2273 4.45454C22.5909 1.90909 28.8788 0.63636 36.0909 0.63636C43.5455 0.63636 50 1.83333 55.4545 4.22727C60.9394 6.59091 65.1667 9.92424 68.1364 14.2273C71.1364 18.5303 72.6364 23.5758 72.6364 29.3636C72.6364 32.9394 71.8939 36.5 70.4091 40.0455C68.9242 43.5606 66.2576 47.4545 62.4091 51.7273C58.5606 56 53.0909 61.0909 46 67L37.2727 74.2727V74.8182H73.6364V95H2.18182Z" fill="white"/>
</svg>
