<svg xmlns="http://www.w3.org/2000/svg" viewBox="648 426 228 261" width="148" height="181">
  <path id="path_f522fa78-e4b4-45bc-0a7d-f61ea05a4b06"
    d="M26.67,42.33 Q25.63,41.25 25.33,38.84 T26.97,32.91 33.17,25.13 45.67,16.22 65.32,8.51 88.22,3.96 109.96,3.50 127.12,8.64 137.71,20.16 141.93,37.10 138.39,58.96 126.47,83.99 106.36,109.27 79.93,131.90 53.43,147.89 30.91,155.28 15.33,155.06 8.28,148.72 7.62,139.37 11.71,131.35 18.93,126.60 28.19,126.30 40.17,131.01 56.95,140.19 77.62,151.04 99.45,161.20 117.57,169.51 131.90,176.77 139.27,180.64 139.37,180.75 139.43,180.88 139.45,181.02 139.42,181.16 139.34,181.29 139.23,181.38 139.10,181.44 138.95,181.45 138.81,181.41 138.69,181.33 138.60,181.21 138.56,181.07 138.56,180.93 138.60,180.79 138.69,180.68 138.81,180.59 138.95,180.55 139.09,180.56 139.23,180.61 139.34,180.71 139.42,180.83 139.45,180.97 139.43,181.12 139.37,181.25 139.27,181.36 139.15,181.42 139.00,181.45 138.86,181.43 138.79,181.40 131.48,177.58 117.19,170.33 99.06,162.03 77.19,151.85 56.52,140.99 39.85,131.85 28.20,127.17 19.35,127.36 12.45,131.81 8.48,139.38 8.97,148.29 15.54,154.29 30.67,154.42 52.98,147.11 79.34,131.21 105.65,108.71 125.65,83.60 137.51,58.83 141.06,37.30 137.04,20.70 126.80,9.45 109.95,4.40 88.40,4.85 65.66,9.36 46.21,16.95 33.89,25.69 27.81,33.14 26.14,38.58 26.84,41.19 27.36,41.71 27.42,41.81 27.46,41.92 27.46,42.03 27.44,42.14 27.40,42.24 27.33,42.33 27.24,42.40 27.14,42.44 27.03,42.46 26.92,42.46 26.81,42.42 26.71,42.36 Z"
    fill="#000000" stroke="transparent" stroke-width="0" stroke-linejoin="round"
    stroke-linecap="round" pointer-events="all" transform="translate(688, 466)" />
</svg>
