<svg width="100%" height="100%" viewBox="0 0 78 97" fill="none" xmlns="http://www.w3.org/2000/svg">
<path d="M38.5455 96.2727C31.2121 96.2727 24.697 95.0152 19 92.5C13.3333 89.9545 8.87879 86.4545 5.63636 82C2.39394 77.5455 0.757576 72.4242 0.727273 66.6364H26.1818C26.2121 68.4242 26.7576 70.0303 27.8182 71.4545C28.9091 72.8485 30.3939 73.9394 32.2727 74.7273C34.1515 75.5152 36.303 75.9091 38.7273 75.9091C41.0606 75.9091 43.1212 75.5 44.9091 74.6818C46.697 73.8333 48.0909 72.6667 49.0909 71.1818C50.0909 69.697 50.5758 68 50.5455 66.0909C50.5758 64.2121 50 62.5455 48.8182 61.0909C47.6667 59.6364 46.0455 58.5 43.9545 57.6818C41.8636 56.8636 39.4545 56.4545 36.7273 56.4545H27.2727V39H36.7273C39.2424 39 41.4545 38.5909 43.3636 37.7727C45.303 36.9545 46.803 35.8182 47.8636 34.3636C48.9545 32.9091 49.4848 31.2424 49.4545 29.3636C49.4848 27.5455 49.0455 25.9394 48.1364 24.5455C47.2273 23.1515 45.9545 22.0606 44.3182 21.2727C42.7121 20.4848 40.8485 20.0909 38.7273 20.0909C36.4242 20.0909 34.3636 20.5 32.5455 21.3182C30.7576 22.1364 29.3485 23.2727 28.3182 24.7273C27.2879 26.1818 26.7576 27.8485 26.7273 29.7273H2.54545C2.57576 24.0303 4.13636 19 7.22727 14.6364C10.3485 10.2727 14.6212 6.84848 20.0455 4.36363C25.4697 1.87878 31.697 0.63636 38.7273 0.63636C45.6061 0.63636 51.6818 1.80303 56.9545 4.13636C62.2576 6.46969 66.3939 9.68182 69.3636 13.7727C72.3636 17.8333 73.8485 22.4848 73.8182 27.7273C73.8788 32.9394 72.0909 37.2121 68.4545 40.5455C64.8485 43.8788 60.2727 45.8485 54.7273 46.4545V47.1818C62.2424 48 67.8939 50.303 71.6818 54.0909C75.4697 57.8485 77.3333 62.5758 77.2727 68.2727C77.303 73.7273 75.6667 78.5606 72.3636 82.7727C69.0909 86.9848 64.5303 90.2879 58.6818 92.6818C52.8636 95.0758 46.1515 96.2727 38.5455 96.2727Z" fill="white"/>
</svg>
