<svg xmlns="http://www.w3.org/2000/svg" viewBox="699 458 284 256" width="204" height="176">
  <path id="path_c1495035-a45c-4c9c-1029-1d1d28355748"
    d="M-0.21,1.58 Q0.82,1.08 4.44,0.68 T16.92,0.09 42.07,-0.19 78.54,-0.32 120.10,0.37 157.35,3.25 180.95,8.39 188.36,16.45 180.23,28.61 160.96,44.01 139.08,63.43 124.05,82.30 120.72,98.81 128.43,119.01 139.56,139.14 145.84,153.99 146.10,164.29 139.77,170.52 126.41,172.81 108.15,172.13 86.73,169.50 65.02,165.93 45.45,162.39 25.01,158.58 13.85,156.42 13.72,156.35 13.62,156.24 13.56,156.11 13.55,155.96 13.59,155.82 13.67,155.70 13.78,155.61 13.92,155.56 14.06,155.56 14.20,155.60 14.32,155.68 14.40,155.80 14.44,155.94 14.44,156.08 14.39,156.22 14.30,156.33 14.18,156.41 14.04,156.45 13.89,156.44 13.76,156.38 13.65,156.28 13.58,156.15 13.55,156.01 13.57,155.87 13.64,155.74 13.74,155.64 13.87,155.57 14.01,155.55 14.09,155.55 25.17,157.68 45.61,161.49 65.17,165.03 86.84,168.60 108.18,171.22 126.24,171.93 139.27,169.85 145.32,164.12 144.99,154.28 138.76,139.58 127.58,119.31 119.87,98.71 123.31,81.82 138.48,62.76 160.38,43.30 179.51,28.16 187.57,16.43 180.51,8.95 157.27,4.16 120.09,1.28 78.54,0.59 42.08,0.73 16.98,1.01 4.68,1.55 0.71,2.16 0.16,2.44 0.05,2.46 -0.06,2.46 -0.17,2.43 -0.27,2.38 -0.35,2.30 -0.41,2.21 -0.45,2.10 -0.46,1.99 -0.45,1.88 -0.41,1.78 -0.34,1.69 -0.26,1.61 Z"
    fill="#000000" stroke="transparent" stroke-width="0" stroke-linejoin="round"
    stroke-linecap="round" pointer-events="all" transform="translate(739, 498)" />
</svg>
