<svg xmlns="http://www.w3.org/2000/svg" viewBox="614 370 334 410" width="254" height="330">
  <path id="path_b2ef6bc8-cc9e-4039-2ad1-0821cf219f50"
    d="M204.43,0.19 Q201.89,5.77 198.22,13.23 T187.15,32.76 169.00,58.64 145.08,86.62 117.06,115.88 88.29,144.50 61.69,171.03 37.94,196.01 20.14,215.42 10.36,226.25 7.06,230.58 6.77,231.55 6.68,231.61 6.58,231.65 6.47,231.66 6.36,231.65 6.26,231.61 6.17,231.55 6.10,231.46 6.05,231.37 6.02,231.26 6.02,231.15 6.05,231.05 6.10,230.95 8.17,230.53 15.74,229.74 31.84,228.88 56.76,228.20 85.78,227.62 116.56,226.82 147.45,225.92 174.59,225.22 196.60,224.88 213.79,224.71 227.55,223.87 237.33,221.94 243.13,219.74 246.44,217.68 248.31,215.93 249.95,212.35 251.50,204.58 252.28,192.39 251.91,180.06 251.05,172.57 250.24,169.90 248.21,173.57 244.28,186.26 239.55,207.20 234.94,234.25 230.89,263.81 227.88,291.05 225.59,316.82 224.44,330.11 224.38,330.24 224.28,330.35 224.15,330.42 224.01,330.45 223.87,330.43 223.74,330.36 223.63,330.26 223.57,330.13 223.55,329.99 223.58,329.84 223.65,329.72 223.76,329.62 223.89,329.56 224.04,329.55 224.18,329.59 224.30,329.67 224.39,329.78 224.44,329.92 224.44,330.06 224.40,330.20 224.32,330.32 224.20,330.40 224.06,330.45 223.91,330.44 223.78,330.39 223.66,330.30 223.59,330.18 223.55,330.03 223.55,329.96 224.68,316.74 226.98,290.95 229.99,263.68 234.04,234.10 238.67,207.00 243.42,185.97 247.42,173.20 250.15,169.43 251.78,172.26 252.81,180.02 253.18,192.45 252.38,204.78 250.72,212.79 248.94,216.57 246.95,218.42 243.46,220.58 237.53,222.83 227.62,224.77 213.80,225.62 196.61,225.79 174.62,226.13 147.47,226.83 116.58,227.73 85.80,228.53 56.79,229.11 31.89,229.79 15.84,230.64 8.59,231.28 6.77,231.55 6.68,231.61 6.58,231.65 6.47,231.66 6.36,231.65 6.26,231.61 6.17,231.55 6.10,231.46 6.05,231.37 6.02,231.26 6.02,231.15 6.05,231.05 6.10,230.95 6.37,230.00 9.67,225.66 19.47,214.81 37.27,195.38 61.04,170.38 87.65,143.85 116.40,115.25 144.38,86.03 168.25,58.11 186.34,32.32 197.38,12.84 202.31,2.60 203.60,-0.24 203.67,-0.33 203.76,-0.40 203.86,-0.44 203.97,-0.46 204.09,-0.46 204.19,-0.42 204.29,-0.36 204.37,-0.28 204.42,-0.19 204.46,-0.08 204.46,0.03 204.44,0.14 Z"
    fill="#000000" stroke="transparent" stroke-width="0" stroke-linejoin="round"
    stroke-linecap="round" pointer-events="all" transform="translate(654, 410)" />
</svg>
