<svg width="100%" height="100%" viewBox="0 0 75 96" fill="none" xmlns="http://www.w3.org/2000/svg">
<path d="M37.4545 95.2727C30.303 95.2727 23.9545 94.0152 18.4091 91.5C12.8939 88.9545 8.54545 85.4545 5.36364 81C2.21212 76.5455 0.606061 71.4242 0.545455 65.6364H25.0909C25.1818 68.8485 26.4242 71.4091 28.8182 73.3182C31.2424 75.2273 34.1212 76.1818 37.4545 76.1818C40.0303 76.1818 42.303 75.6364 44.2727 74.5455C46.2424 73.4242 47.7879 71.8485 48.9091 69.8182C50.0303 67.7879 50.5758 65.4242 50.5455 62.7273C50.5758 60 50.0303 57.6364 48.9091 55.6364C47.7879 53.6061 46.2424 52.0455 44.2727 50.9545C42.303 49.8333 40.0303 49.2727 37.4545 49.2727C34.7879 49.2727 32.3182 49.9242 30.0455 51.2273C27.803 52.5 26.1515 54.2727 25.0909 56.5455L2.90909 52.1818L6.54545 0.909088H69.0909V21.0909H27.2727L25.4545 41.6364H26C27.4545 38.8182 29.9697 36.4848 33.5455 34.6364C37.1212 32.7576 41.2727 31.8182 46 31.8182C51.5455 31.8182 56.4849 33.1061 60.8182 35.6818C65.1818 38.2576 68.6212 41.8182 71.1364 46.3636C73.6818 50.8788 74.9394 56.0909 74.9091 62C74.9394 68.4848 73.3939 74.2424 70.2727 79.2727C67.1818 84.2727 62.8333 88.197 57.2273 91.0455C51.6212 93.8636 45.0303 95.2727 37.4545 95.2727Z" fill="white"/>
</svg>
