<svg xmlns="http://www.w3.org/2000/svg" viewBox="717 269 217 416" width="137" height="336">
  <path id="path_660e2b11-1538-421c-1f9a-5b890cf29624"
    d="M131.28,0.37 Q123.35,6.32 115.39,13.27 T97.48,31.67 75.54,59.05 54.07,91.47 33.08,131.87 13.59,179.26 3.03,230.65 3.45,278.57 13.80,310.55 37.05,328.49 66.83,335.00 91.74,333.07 114.62,323.19 131.51,305.39 135.53,278.67 126.66,248.40 108.81,225.48 87.95,212.00 64.09,205.49 42.65,202.97 29.17,204.93 24.13,207.43 23.99,207.45 23.84,207.42 23.72,207.35 23.62,207.24 23.56,207.11 23.55,206.96 23.59,206.82 23.67,206.70 23.78,206.61 23.92,206.56 24.06,206.56 24.20,206.60 24.32,206.68 24.40,206.80 24.45,206.94 24.44,207.09 24.39,207.22 24.30,207.34 24.18,207.41 24.03,207.45 23.89,207.44 23.76,207.38 23.65,207.28 23.58,207.15 23.55,207.01 23.57,206.87 23.64,206.74 23.74,206.63 23.80,206.59 28.97,204.08 42.72,202.07 64.33,204.62 88.41,211.23 109.50,224.91 127.50,248.12 136.40,278.79 132.19,305.92 114.99,323.98 91.83,333.96 66.66,335.88 36.55,329.20 13.02,310.90 2.55,278.61 2.15,230.47 12.75,178.92 32.28,131.44 53.30,90.97 74.83,58.48 96.83,31.02 114.81,12.56 126.75,2.60 130.77,-0.40 130.87,-0.45 130.98,-0.46 131.09,-0.45 131.20,-0.42 131.29,-0.36 131.37,-0.28 131.43,-0.18 131.46,-0.07 131.46,0.04 131.44,0.15 131.39,0.25 131.32,0.33 Z"
    fill="#000000" stroke="transparent" stroke-width="0" stroke-linejoin="round"
    stroke-linecap="round" pointer-events="all" transform="translate(757, 309)" />
</svg>
