<svg width="100%" height="100%" viewBox="0 0 79 97" fill="none" xmlns="http://www.w3.org/2000/svg">
<path d="M41.0909 96.2727C35.6667 96.2727 30.5152 95.4242 25.6364 93.7273C20.7879 92 16.4848 89.2879 12.7273 85.5909C8.9697 81.8939 6.01515 77.0758 3.86364 71.1364C1.74242 65.197 0.69697 58 0.727273 49.5455C0.757576 42 1.72727 35.2121 3.63636 29.1818C5.57576 23.1515 8.31818 18.0151 11.8636 13.7727C15.4394 9.5303 19.7121 6.28787 24.6818 4.04545C29.6515 1.77272 35.1818 0.63636 41.2727 0.63636C48.1212 0.63636 54.1515 1.95454 59.3636 4.5909C64.5758 7.22727 68.7273 10.7576 71.8182 15.1818C74.9394 19.5758 76.7576 24.4242 77.2727 29.7273H52.3636C51.7879 27.0909 50.4545 25.1667 48.3636 23.9545C46.303 22.7121 43.9394 22.0909 41.2727 22.0909C35.9697 22.0909 32.0758 24.3939 29.5909 29C27.1364 33.6061 25.8788 39.6667 25.8182 47.1818H26.3636C27.5455 44.3333 29.3333 41.8939 31.7273 39.8636C34.1212 37.8333 36.9091 36.2727 40.0909 35.1818C43.2727 34.0909 46.6364 33.5455 50.1818 33.5455C55.8182 33.5455 60.7424 34.8182 64.9545 37.3636C69.197 39.9091 72.5 43.3939 74.8636 47.8182C77.2273 52.2424 78.3939 57.303 78.3636 63C78.3939 69.6667 76.8182 75.5 73.6364 80.5C70.4849 85.5 66.1061 89.3788 60.5 92.1364C54.8939 94.8939 48.4242 96.2727 41.0909 96.2727ZM40.9091 77.1818C43.4242 77.1818 45.6515 76.6061 47.5909 75.4545C49.5606 74.303 51.0909 72.7273 52.1818 70.7273C53.303 68.7273 53.8485 66.4545 53.8182 63.9091C53.8485 61.3333 53.303 59.0606 52.1818 57.0909C51.0909 55.0909 49.5606 53.5152 47.5909 52.3636C45.6515 51.2121 43.4242 50.6364 40.9091 50.6364C39.0606 50.6364 37.3485 50.9697 35.7727 51.6364C34.2273 52.2727 32.8788 53.197 31.7273 54.4091C30.5758 55.5909 29.6667 57 29 58.6364C28.3636 60.2424 28.0303 62 28 63.9091C28.0303 66.4545 28.6061 68.7273 29.7273 70.7273C30.8485 72.7273 32.3788 74.303 34.3182 75.4545C36.2576 76.6061 38.4545 77.1818 40.9091 77.1818Z" fill="white"/>
</svg>
