<svg xmlns="http://www.w3.org/2000/svg" viewBox="707 441 272 295" width="192" height="215">
  <path id="path_7ac47df1-04e3-4a99-1040-ec843fd77a33"
    d="M0.09,-0.46 Q5.05,0.54 15.50,3.52 T45.33,8.51 86.67,11.02 130.13,11.54 166.70,12.04 187.04,14.78 191.39,20.55 183.97,33.09 167.01,55.58 140.58,88.01 104.66,132.90 77.11,170.44 65.50,191.53 60.48,206.01 59.46,213.00 59.44,215.07 59.40,215.21 59.31,215.33 59.19,215.41 59.05,215.45 58.90,215.44 58.77,215.38 58.66,215.29 58.58,215.17 58.55,215.02 58.57,214.88 58.63,214.75 58.73,214.64 58.86,214.57 59.00,214.55 59.14,214.57 59.27,214.64 59.37,214.75 59.43,214.88 59.45,215.02 59.42,215.17 59.34,215.29 59.23,215.38 59.10,215.44 58.95,215.45 58.81,215.41 58.69,215.33 58.60,215.21 58.56,215.07 58.54,215.00 58.56,212.91 59.61,205.74 64.70,191.11 76.37,169.92 103.95,132.33 139.87,87.44 166.28,55.03 183.16,32.70 190.54,20.36 186.61,15.18 166.67,12.95 130.12,12.45 86.62,11.94 45.16,9.41 15.28,4.42 2.39,0.95 -0.15,0.44 -0.25,0.39 -0.33,0.32 -0.40,0.23 -0.44,0.13 -0.46,0.02 -0.45,-0.09 -0.42,-0.20 -0.36,-0.29 -0.28,-0.37 -0.18,-0.43 -0.08,-0.46 0.04,-0.46 Z"
    fill="#000000" stroke="transparent" stroke-width="0" stroke-linejoin="round"
    stroke-linecap="round" pointer-events="all" transform="translate(747, 481)" />
</svg>
