<svg width="100%" height="100%" viewBox="0 0 79 97" fill="none" xmlns="http://www.w3.org/2000/svg">
<path d="M39.1818 96.2727C31.6667 96.2727 24.9545 95.1061 19.0455 92.7727C13.1667 90.4394 8.5303 87.2727 5.13636 83.2727C1.77273 79.2727 0.090909 74.7576 0.090909 69.7273C0.090909 65.8788 1.04545 62.3636 2.95455 59.1818C4.89394 56 7.5 53.3636 10.7727 51.2727C14.0455 49.1515 17.697 47.7879 21.7273 47.1818V46.4545C16.4242 45.5455 12.0606 43.197 8.63636 39.4091C5.24242 35.5909 3.54545 31.0909 3.54545 25.9091C3.54545 21.0303 5.09091 16.697 8.18182 12.9091C11.2727 9.09091 15.5 6.09091 20.8636 3.90909C26.2273 1.72727 32.3333 0.63636 39.1818 0.63636C46.0303 0.63636 52.1364 1.74242 57.5 3.95454C62.8636 6.13636 67.0909 9.13636 70.1818 12.9545C73.2727 16.7424 74.8182 21.0606 74.8182 25.9091C74.8182 31.1212 73.0909 35.6212 69.6364 39.4091C66.1818 43.197 61.8485 45.5455 56.6364 46.4545V47.1818C60.6364 47.7879 64.2727 49.1515 67.5455 51.2727C70.8182 53.3636 73.4242 56 75.3636 59.1818C77.303 62.3636 78.2727 65.8788 78.2727 69.7273C78.2727 74.7576 76.5758 79.2727 73.1818 83.2727C69.8182 87.2727 65.1818 90.4394 59.2727 92.7727C53.3939 95.1061 46.697 96.2727 39.1818 96.2727ZM39.1818 78.8182C41.5758 78.8182 43.697 78.3333 45.5455 77.3636C47.3939 76.3939 48.8485 75.0606 49.9091 73.3636C51 71.6364 51.5455 69.697 51.5455 67.5455C51.5455 65.3939 51 63.4848 49.9091 61.8182C48.8485 60.1515 47.3939 58.8485 45.5455 57.9091C43.697 56.9394 41.5758 56.4545 39.1818 56.4545C36.8182 56.4545 34.697 56.9394 32.8182 57.9091C30.9697 58.8485 29.5 60.1515 28.4091 61.8182C27.3485 63.4848 26.8182 65.3939 26.8182 67.5455C26.8182 69.697 27.3485 71.6212 28.4091 73.3182C29.5 75.0152 30.9697 76.3636 32.8182 77.3636C34.697 78.3333 36.8182 78.8182 39.1818 78.8182ZM39.1818 39C41.303 39 43.1818 38.5606 44.8182 37.6818C46.4545 36.803 47.7424 35.5909 48.6818 34.0455C49.6212 32.5 50.0909 30.7576 50.0909 28.8182C50.0909 26.8788 49.6212 25.1667 48.6818 23.6818C47.7424 22.1667 46.4545 20.9848 44.8182 20.1364C43.1818 19.2576 41.303 18.8182 39.1818 18.8182C37.0909 18.8182 35.2121 19.2576 33.5455 20.1364C31.9091 20.9848 30.6212 22.1667 29.6818 23.6818C28.7424 25.1667 28.2727 26.8788 28.2727 28.8182C28.2727 30.7576 28.7424 32.5 29.6818 34.0455C30.6212 35.5606 31.9091 36.7727 33.5455 37.6818C35.2121 38.5606 37.0909 39 39.1818 39Z" fill="white"/>
</svg>
