<svg width="100%" height="100%" viewBox="0 0 78 97" fill="none" xmlns="http://www.w3.org/2000/svg">
<path d="M37.5455 0.63636C42.9697 0.63636 48.1061 1.5 52.9545 3.22727C57.803 4.92424 62.0909 7.60606 65.8182 11.2727C69.5758 14.9394 72.5152 19.7273 74.6364 25.6364C76.7879 31.5151 77.8788 38.6364 77.9091 47C77.9394 54.6364 76.9849 61.5 75.0455 67.5909C73.1364 73.6515 70.3939 78.8182 66.8182 83.0909C63.2727 87.3636 59 90.6364 54 92.9091C49.0303 95.1515 43.4848 96.2727 37.3636 96.2727C30.4848 96.2727 24.4394 94.9545 19.2273 92.3182C14.0152 89.6818 9.86364 86.1364 6.77273 81.6818C3.68182 77.2273 1.87879 72.2727 1.36364 66.8182H26.2727C26.8788 69.6364 28.2121 71.6818 30.2727 72.9545C32.3333 74.197 34.697 74.8182 37.3636 74.8182C42.697 74.8182 46.5909 72.5152 49.0455 67.9091C51.5303 63.2727 52.7879 57.0909 52.8182 49.3636H52.2727C51.0909 52.2121 49.303 54.6515 46.9091 56.6818C44.5152 58.7121 41.7273 60.2727 38.5455 61.3636C35.3636 62.4545 32 63 28.4545 63C22.8485 63 17.9394 61.7424 13.7273 59.2273C9.51515 56.6818 6.22727 53.2121 3.86364 48.8182C1.5 44.3939 0.30303 39.3636 0.272727 33.7273C0.242424 27.1212 1.80303 21.3333 4.95455 16.3636C8.10606 11.3939 12.4848 7.5303 18.0909 4.77273C23.697 2.01515 30.1818 0.63636 37.5455 0.63636ZM37.7273 19.7273C35.2121 19.7273 32.9697 20.303 31 21.4545C29.0606 22.6061 27.5303 24.1667 26.4091 26.1364C25.3182 28.1061 24.7879 30.3333 24.8182 32.8182C24.8485 35.303 25.4091 37.5303 26.5 39.5C27.6212 41.4697 29.1364 43.0303 31.0455 44.1818C32.9849 45.3333 35.2121 45.9091 37.7273 45.9091C39.5758 45.9091 41.2879 45.5909 42.8636 44.9545C44.4394 44.2879 45.803 43.3636 46.9545 42.1818C48.1364 40.9697 49.0455 39.5758 49.6818 38C50.3485 36.3939 50.6667 34.6667 50.6364 32.8182C50.6061 30.3333 50.0303 28.1061 48.9091 26.1364C47.7879 24.1667 46.2576 22.6061 44.3182 21.4545C42.3788 20.303 40.1818 19.7273 37.7273 19.7273Z" fill="white"/>
</svg>
