<svg xmlns="http://www.w3.org/2000/svg" viewBox="621 286 235 294" width="155" height="214">
  <path id="path_e741a596-5f35-4029-2310-99d3e91f6bf8"
    d="M131.00,101.47 Q129.01,101.46 124.96,99.96 T114.46,96.97 99.54,93.98 81.08,90.98 60.09,86.48 39.53,79.49 22.43,70.47 8.31,57.44 0.67,46.80 1.56,34.11 9.06,17.92 22.12,7.73 41.69,1.63 68.73,-0.43 99.28,2.03 125.90,9.01 144.10,20.04 153.30,33.17 154.93,48.33 150.47,66.45 138.51,90.99 122.03,118.99 101.07,153.44 84.05,185.43 76.48,203.02 72.74,212.25 71.94,214.45 71.80,214.40 71.69,214.32 71.60,214.20 71.56,214.06 71.56,213.92 71.61,213.78 71.70,213.67 71.82,213.59 71.96,213.55 72.10,213.56 72.24,213.62 72.35,213.72 72.42,213.84 72.45,213.98 72.43,214.13 72.37,214.26 72.26,214.36 72.14,214.43 71.99,214.45 71.85,214.42 71.72,214.35 71.62,214.24 71.57,214.11 71.55,213.97 71.59,213.83 71.66,213.70 71.78,213.61 71.91,213.56 71.98,213.55 72.31,211.63 75.65,202.68 83.24,185.02 100.29,152.97 121.25,118.53 137.69,90.60 149.60,66.24 154.04,48.42 152.54,33.61 143.59,20.77 125.65,9.87 99.20,2.93 68.81,0.47 41.97,2.48 22.66,8.44 9.82,18.35 2.42,34.10 1.46,46.38 8.93,56.78 22.86,69.68 39.82,78.63 60.27,85.59 81.23,90.07 99.72,93.08 114.72,96.09 125.13,99.07 130.01,100.54 131.06,100.54 131.16,100.57 131.26,100.62 131.35,100.69 131.41,100.78 131.45,100.89 131.46,101.00 131.45,101.11 131.41,101.22 131.35,101.31 131.26,101.38 131.16,101.43 131.06,101.46 Z"
    fill="#000000" stroke="transparent" stroke-width="0" stroke-linejoin="round"
    stroke-linecap="round" pointer-events="all" transform="translate(661, 326)" />
</svg>
