<svg xmlns="http://www.w3.org/2000/svg" viewBox="757 394 537 302" width="457" height="222">
  <path id="path_c03aa292-0a59-48ef-2dab-63bdbcf6264c"
    d="M178.39,0.26 Q177.37,1.78 175.09,4.95 T168.63,13.24 156.81,25.71 138.28,41.51 114.94,59.19 89.25,77.79 64.91,94.57 45.30,107.15 30.05,116.40 18.75,123.74 10.93,129.87 5.81,134.65 3.06,137.75 1.95,139.53 1.71,140.16 1.63,140.23 1.53,140.28 1.42,140.30 1.31,140.29 1.21,140.26 1.12,140.20 1.04,140.13 0.98,140.04 0.95,139.93 0.94,139.82 0.96,139.72 1.00,139.62 3.65,139.52 11.55,140.00 24.74,141.54 46.22,145.35 77.35,152.81 113.00,163.34 150.60,176.64 187.15,190.81 218.34,203.11 241.32,211.96 254.13,216.32 259.43,217.20 260.74,217.00 260.84,217.06 260.92,217.13 260.98,217.22 261.01,217.32 261.02,217.43 261.01,217.54 260.97,217.64 260.90,217.73 260.82,217.80 260.72,217.85 260.62,217.87 260.51,217.87 258.42,215.40 247.14,208.01 223.69,196.84 191.58,183.96 154.97,171.27 117.66,160.20 82.04,150.95 51.79,143.08 30.80,137.43 19.46,134.39 15.12,133.65 14.29,133.90 14.19,133.85 14.12,133.77 14.06,133.68 14.02,133.58 14.01,133.47 14.03,133.36 14.07,133.26 14.13,133.17 14.22,133.10 14.32,133.06 14.42,133.03 14.53,133.04 15.51,133.44 21.88,134.51 38.40,135.79 73.43,136.43 125.93,135.47 187.04,133.23 251.91,131.11 313.05,129.55 366.51,128.28 407.56,126.89 440.49,125.32 457.05,124.55 457.19,124.59 457.31,124.68 457.40,124.79 457.44,124.93 457.44,125.08 457.40,125.21 457.31,125.33 457.19,125.41 457.05,125.45 456.90,125.44 456.77,125.38 456.66,125.29 456.58,125.16 456.55,125.02 456.57,124.88 456.63,124.75 456.73,124.64 456.86,124.57 457.00,124.55 457.15,124.58 457.27,124.64 457.37,124.75 457.43,124.88 457.45,125.03 457.42,125.17 457.34,125.29 457.23,125.39 457.09,125.44 457.02,125.45 440.53,126.23 407.59,127.80 366.53,129.19 313.07,130.46 251.94,132.02 187.08,134.14 125.94,136.38 73.40,137.33 38.32,136.70 21.65,135.38 15.21,134.30 14.29,133.90 14.20,133.85 14.12,133.77 14.06,133.68 14.02,133.58 14.01,133.47 14.03,133.36 14.07,133.26 14.13,133.17 14.22,133.10 14.32,133.06 14.42,133.03 14.53,133.04 15.31,132.78 19.64,133.52 31.03,136.55 52.02,142.20 82.27,150.07 117.92,159.33 155.27,170.41 191.92,183.11 224.08,196.02 247.70,207.32 258.88,214.67 260.74,217.00 260.84,217.06 260.92,217.13 260.98,217.22 261.01,217.32 261.02,217.43 261.01,217.54 260.97,217.64 260.90,217.73 260.82,217.80 260.72,217.85 260.62,217.87 260.51,217.87 259.22,218.08 253.87,217.19 240.99,212.81 218.00,203.96 186.82,191.65 150.30,177.50 112.74,164.21 77.15,153.70 46.07,146.25 24.64,142.45 11.49,140.90 4.00,140.25 1.71,140.16 1.63,140.23 1.53,140.28 1.42,140.30 1.31,140.29 1.21,140.26 1.12,140.20 1.04,140.13 0.98,140.04 0.95,139.93 0.94,139.82 0.96,139.72 1.00,139.62 1.23,138.98 2.37,137.16 5.19,133.99 10.36,129.16 18.25,122.98 29.58,115.62 44.81,106.39 64.40,93.82 88.71,77.05 114.39,58.46 137.68,40.82 156.13,25.09 167.90,12.68 174.33,4.42 177.11,0.50 177.65,-0.30 177.73,-0.38 177.83,-0.43 177.94,-0.46 178.05,-0.46 178.16,-0.44 178.26,-0.39 178.34,-0.31 178.41,-0.22 178.45,-0.12 178.46,-0.01 178.45,0.10 178.41,0.21 Z"
    fill="#000000" stroke="transparent" stroke-width="0" stroke-linejoin="round"
    stroke-linecap="round" pointer-events="all" transform="translate(797, 434)" />
</svg>
