<svg xmlns="http://www.w3.org/2000/svg" viewBox="1016 417 379 277" width="299" height="197">
  <path id="path_a50b36f5-c2f4-4dbd-1fd8-1f43330d0007"
    d="M119.42,-0.21 Q119.92,0.80 122.03,3.03 T127.47,8.14 138.76,16.49 156.48,27.44 177.12,38.67 197.44,49.02 220.62,59.19 245.73,69.01 266.21,75.88 281.36,80.02 290.07,82.33 293.47,82.72 294.34,82.15 294.55,81.93 294.66,81.91 294.77,81.92 294.88,81.95 294.97,82.01 295.05,82.08 295.11,82.18 295.14,82.28 295.15,82.39 295.13,82.50 295.09,82.60 295.02,82.69 294.93,82.76 294.32,82.71 292.13,83.09 287.42,85.52 277.74,92.52 260.80,106.62 240.03,126.49 220.17,147.94 204.30,166.87 194.20,180.49 188.72,188.73 185.91,192.60 184.55,193.50 184.14,193.46 184.05,193.52 183.95,193.55 183.84,193.56 183.73,193.54 183.63,193.50 183.54,193.43 183.47,193.34 183.43,193.25 183.40,193.14 183.41,193.03 183.44,192.92 183.50,192.83 184.28,190.81 186.45,186.27 190.86,179.64 199.12,168.77 209.78,154.80 221.36,139.05 233.16,122.67 244.06,108.99 252.74,99.45 258.03,93.74 261.16,90.65 262.93,88.90 264.05,87.55 265.66,86.07 267.43,84.76 268.06,84.11 267.25,83.84 262.10,83.69 248.38,83.82 217.54,85.67 172.92,88.85 129.12,91.44 88.51,93.48 53.53,94.99 28.67,95.73 9.46,95.72 -0.08,95.44 -0.22,95.39 -0.33,95.30 -0.41,95.18 -0.45,95.04 -0.44,94.89 -0.38,94.76 -0.28,94.65 -0.15,94.58 -0.01,94.55 0.13,94.57 0.26,94.64 0.37,94.74 0.43,94.87 0.45,95.01 0.42,95.16 0.35,95.28 0.24,95.38 0.11,95.44 -0.04,95.45 -0.18,95.41 -0.30,95.33 -0.39,95.22 -0.44,95.08 -0.45,94.94 -0.40,94.80 -0.32,94.68 -0.20,94.60 -0.06,94.55 0.01,94.54 9.46,94.81 28.65,94.82 53.49,94.08 88.46,92.57 129.06,90.53 172.86,87.94 217.49,84.75 248.38,82.91 262.19,82.78 267.61,83.09 268.72,83.80 268.09,85.10 266.28,86.73 264.75,88.13 263.59,89.53 261.79,91.31 258.69,94.36 253.41,100.06 244.77,109.56 233.90,123.20 222.10,139.59 210.50,155.36 199.85,169.32 191.62,180.14 187.27,186.65 185.03,191.29 184.14,193.46 184.05,193.52 183.95,193.55 183.84,193.56 183.73,193.54 183.63,193.50 183.54,193.43 183.47,193.34 183.43,193.25 183.40,193.14 183.41,193.03 183.44,192.92 183.50,192.83 184.05,192.81 185.35,191.98 187.96,188.23 193.47,179.96 203.60,166.28 219.50,147.32 239.40,125.83 260.22,105.92 277.22,91.78 287.05,84.69 292.08,82.20 294.20,81.84 294.55,81.93 294.66,81.91 294.77,81.92 294.88,81.95 294.97,82.01 295.05,82.08 295.11,82.18 295.14,82.28 295.15,82.39 295.13,82.50 295.09,82.60 295.02,82.69 294.93,82.76 294.74,82.97 293.62,83.55 289.91,83.20 281.12,80.90 265.92,76.75 245.40,69.86 220.25,60.02 197.03,49.83 176.69,39.47 156.00,28.21 138.20,17.21 126.84,8.80 121.29,3.56 118.84,0.72 118.56,0.16 118.54,0.05 118.54,-0.06 118.57,-0.17 118.62,-0.27 118.70,-0.35 118.79,-0.41 118.90,-0.45 119.01,-0.46 119.12,-0.45 119.22,-0.41 119.31,-0.34 119.39,-0.26 Z"
    fill="#000000" stroke="transparent" stroke-width="0" stroke-linejoin="round"
    stroke-linecap="round" pointer-events="all" transform="translate(1056, 457)" />
</svg>
