<svg width="100%" height="100%" viewBox="0 0 26 73" fill="none" xmlns="http://www.w3.org/2000/svg">
<path d="M13 72.4545C9.48485 72.4545 6.4697 71.2273 3.95455 68.7727C1.4697 66.2879 0.242424 63.2727 0.272727 59.7273C0.242424 56.2727 1.4697 53.3182 3.95455 50.8636C6.4697 48.4091 9.48485 47.1818 13 47.1818C16.3333 47.1818 19.2727 48.4091 21.8182 50.8636C24.3939 53.3182 25.697 56.2727 25.7273 59.7273C25.697 62.0909 25.0758 64.2424 23.8636 66.1818C22.6818 68.0909 21.1364 69.6212 19.2273 70.7727C17.3182 71.8939 15.2424 72.4545 13 72.4545ZM13 25.5455C9.48485 25.5455 6.4697 24.3182 3.95455 21.8636C1.4697 19.3788 0.242424 16.3636 0.272727 12.8182C0.242424 9.36363 1.4697 6.40909 3.95455 3.95454C6.4697 1.5 9.48485 0.272728 13 0.272728C16.3333 0.272728 19.2727 1.5 21.8182 3.95454C24.3939 6.40909 25.697 9.36363 25.7273 12.8182C25.697 15.1818 25.0758 17.3333 23.8636 19.2727C22.6818 21.1818 21.1364 22.7121 19.2273 23.8636C17.3182 24.9848 15.2424 25.5455 13 25.5455Z" fill="white"/>
</svg>
