<svg xmlns="http://www.w3.org/2000/svg" viewBox="904 357 99 269" width="19" height="214">
  <path id="path_9e415322-6676-46b1-1b57-a8e36b97a86a"
    d="M-0.33,9.67 Q0.69,8.66 1.42,7.67 T3.60,5.63 6.48,3.58 9.16,1.82 11.55,0.67 13.53,0.10 15.13,0.08 16.30,0.65 17.12,1.45 18.01,2.62 18.76,4.56 18.87,7.63 18.14,11.22 16.48,14.56 14.11,17.51 11.61,19.50 9.31,20.50 7.30,20.73 5.68,20.02 4.32,18.32 2.91,15.44 1.47,11.73 0.19,7.47 -0.45,5.04 -0.44,4.90 -0.38,4.76 -0.29,4.65 -0.16,4.58 -0.02,4.55 0.12,4.57 0.26,4.63 0.36,4.73 0.43,4.86 0.45,5.00 0.42,5.15 0.35,5.28 0.25,5.37 0.12,5.43 -0.03,5.45 -0.17,5.42 -0.29,5.34 -0.39,5.23 -0.44,5.09 -0.45,4.95 -0.41,4.81 -0.32,4.69 -0.21,4.60 -0.07,4.56 0.08,4.56 0.21,4.61 0.33,4.69 0.41,4.82 0.44,4.88 1.06,7.21 2.31,11.40 3.73,15.03 5.02,17.77 6.08,19.25 7.29,19.86 8.98,19.66 11.08,18.77 13.41,16.93 15.67,14.15 17.26,11.03 17.97,7.68 17.92,4.89 17.30,3.18 16.46,2.09 15.82,1.38 15.06,0.95 13.76,0.97 11.93,1.50 9.66,2.59 7.01,4.33 4.23,6.29 2.12,8.28 0.84,9.82 0.29,10.37 0.19,10.42 0.08,10.46 -0.03,10.46 -0.14,10.44 -0.24,10.40 -0.33,10.33 -0.40,10.24 -0.44,10.14 -0.46,10.03 -0.46,9.92 -0.42,9.81 -0.37,9.71 Z"
    fill="#000000" stroke="transparent" stroke-width="0" stroke-linejoin="round"
    stroke-linecap="round" pointer-events="all" transform="translate(944, 565)" />
  <path id="path_04cebb5f-ff06-44b9-19c2-d0f5ff7e17b0"
    d="M5.42,7.21 Q4.91,8.22 4.25,9.02 T3.31,10.63 2.63,12.40 1.76,14.33 1.09,16.72 1.22,18.97 2.92,20.22 5.70,20.59 8.26,20.07 10.30,19.32 11.82,18.70 13.02,17.92 14.08,16.82 14.82,15.57 15.18,14.25 15.36,12.37 14.96,9.99 14.01,7.32 12.54,3.02 11.56,0.07 11.56,-0.07 11.60,-0.21 11.69,-0.33 11.81,-0.41 11.95,-0.45 12.10,-0.44 12.23,-0.39 12.34,-0.29 12.42,-0.17 12.45,-0.02 12.43,0.12 12.37,0.25 12.27,0.36 12.14,0.43 12.00,0.45 11.86,0.43 11.73,0.36 11.63,0.25 11.57,0.12 11.55,-0.02 11.58,-0.17 11.66,-0.29 11.77,-0.38 11.90,-0.44 12.05,-0.45 12.19,-0.41 12.31,-0.33 12.40,-0.21 12.43,-0.15 13.40,2.73 14.87,7.02 15.84,9.85 16.26,12.45 16.04,14.51 15.60,16.02 14.72,17.45 13.52,18.67 12.18,19.53 10.61,20.17 8.45,20.95 5.58,21.48 2.46,20.91 0.45,19.20 0.23,16.49 0.92,13.96 1.77,12.06 2.52,10.19 3.47,8.52 4.33,7.30 4.61,6.74 4.69,6.66 4.78,6.59 4.88,6.55 4.99,6.54 5.10,6.55 5.21,6.59 5.30,6.65 5.38,6.73 5.43,6.83 5.46,6.94 5.46,7.05 5.44,7.16 Z"
    fill="#000000" stroke="transparent" stroke-width="0" stroke-linejoin="round"
    stroke-linecap="round" pointer-events="all" transform="translate(947, 397)" />
</svg>
