<svg xmlns="http://www.w3.org/2000/svg" viewBox="866 423 296 91" width="216" height="11">
  <path id="path_be62e188-badb-4d5c-119f-c0bbe22a7386"
    d="M0.00,10.53 Q2.03,10.54 6.32,10.28 T18.56,9.65 37.53,8.84 63.36,7.67 95.62,6.34 129.52,4.92 160.42,3.46 185.03,1.98 205.58,0.35 216.04,-0.45 216.18,-0.41 216.30,-0.33 216.39,-0.22 216.44,-0.08 216.45,0.06 216.40,0.20 216.32,0.32 216.20,0.40 216.06,0.45 215.91,0.44 215.78,0.39 215.66,0.30 215.59,0.18 215.55,0.03 215.56,-0.11 215.62,-0.24 215.72,-0.35 215.85,-0.42 215.99,-0.45 216.13,-0.43 216.26,-0.36 216.37,-0.26 216.43,-0.13 216.45,0.01 216.42,0.16 216.35,0.28 216.24,0.38 216.11,0.44 216.04,0.45 205.65,1.26 185.09,2.89 160.47,4.38 129.56,5.84 95.66,7.25 63.40,8.59 37.57,9.75 18.61,10.57 6.34,11.21 1.01,11.47 -0.06,11.46 -0.16,11.43 -0.26,11.38 -0.35,11.31 -0.41,11.22 -0.45,11.11 -0.46,11.00 -0.45,10.89 -0.41,10.78 -0.35,10.69 -0.26,10.62 -0.16,10.57 -0.06,10.54 Z"
    fill="#000000" stroke="transparent" stroke-width="0" stroke-linejoin="round"
    stroke-linecap="round" pointer-events="all" transform="translate(906, 463)" />
</svg>
