<svg xmlns="http://www.w3.org/2000/svg" viewBox="783 573 94 88" width="200" height="8">
  <path id="path_8618a924-ff52-453e-02fb-6724258eff4b" scale="0.3"
    d="M0.33,6.67 Q0.80,7.15 1.33,7.23 T2.90,7.36 5.72,7.45 8.82,7.00 10.77,6.06 12.02,5.33 12.85,4.90 12.68,4.15 11.94,3.30 10.86,2.62 9.08,1.77 6.98,1.10 4.96,0.78 2.11,1.02 0.21,1.39 0.08,1.44 -0.07,1.44 -0.21,1.40 -0.32,1.31 -0.41,1.19 -0.45,1.05 -0.44,0.91 -0.39,0.77 -0.29,0.66 -0.17,0.58 -0.03,0.55 0.12,0.57 0.25,0.63 0.36,0.72 0.42,0.85 0.45,1.00 0.43,1.14 0.36,1.27 0.26,1.37 0.12,1.43 -0.02,1.45 -0.16,1.42 -0.29,1.35 -0.38,1.24 -0.44,1.10 -0.45,0.96 -0.41,0.82 -0.33,0.69 -0.28,0.64 1.88,0.20 5.10,-0.12 7.25,0.24 9.49,0.95 11.38,1.86 12.61,2.71 13.46,3.92 13.43,5.30 12.49,6.11 11.19,6.86 8.98,7.89 5.70,8.37 2.78,8.28 0.95,8.04 -0.06,7.60 -0.37,7.29 -0.42,7.19 -0.46,7.08 -0.46,6.97 -0.44,6.86 -0.40,6.76 -0.33,6.67 -0.24,6.60 -0.14,6.56 -0.03,6.54 0.08,6.54 0.19,6.58 0.29,6.63 Z"
    fill="#000000" stroke="transparent" stroke-width="0" stroke-linejoin="round"
    stroke-linecap="round" pointer-events="all" transform="translate(823, 653)" />
</svg>
